<svg width="22" height="23" viewBox="0 0 22 23" fill="#ffffff" xmlns="http://www.w3.org/2000/svg">
<path d="M19.83 9.65713C20.5066 9.39398 20.845 9.26235 20.94 9.07632C21.0223 8.91518 21.0198 8.72373 20.9333 8.56477C20.8335 8.38128 20.4918 8.25862 19.8085 8.01331L2.379 1.75658C1.81992 1.55588 1.54038 1.45553 1.35762 1.51882C1.19874 1.57384 1.07386 1.6987 1.01884 1.8576C0.955553 2.04034 1.05591 2.31989 1.2566 2.87898L7.51329 20.3085C7.7586 20.9919 7.88125 21.3335 8.06473 21.4334C8.2237 21.5198 8.41505 21.5223 8.5763 21.4401C8.76233 21.3451 8.89385 21.0067 9.15711 20.33L12.0055 13.0053C12.0571 12.8728 12.0829 12.8066 12.1227 12.7507C12.158 12.7013 12.2012 12.658 12.2507 12.6227C12.3065 12.5829 12.3728 12.5571 12.5053 12.5056L19.83 9.65713Z" stroke="#262626" stroke-width="2" stroke-linecap="round" stroke-linejoin="round"/>
</svg>
