<svg width="20" height="20" viewBox="0 0 20 20" fill="none" xmlns="http://www.w3.org/2000/svg">
<path fill-rule="evenodd" clip-rule="evenodd" d="M12.397 0.398098C11.8304 0.725165 11.6439 0.882289 11.6418 1.03429C11.6403 1.14526 11.8473 1.54814 12.1019 1.92951C12.4969 2.52129 12.6005 2.61935 12.8075 2.59765C13.143 2.56249 13.1585 2.33413 12.8562 1.88409L12.6001 1.50282L12.8261 1.56847C14.5532 2.07015 16.1637 3.11774 17.3577 4.51629C18.0059 5.27535 18.7797 6.71703 19.0666 7.69979C19.2482 8.32206 19.2802 8.66661 19.2787 9.98889C19.2772 11.4232 19.2561 11.6099 19.01 12.3639C17.8425 15.9415 14.622 18.4015 10.6993 18.7123C10.0592 18.763 9.8314 18.8171 9.75082 18.9375C9.66886 19.06 9.68289 19.132 9.8125 19.2538C9.96491 19.397 10.0726 19.4018 10.9802 19.3058C13.3214 19.0582 15.2403 18.2341 16.8819 16.7712C19.0422 14.8462 20.1245 12.3239 19.9886 9.53107C19.9216 8.15321 19.6612 7.16725 19.0362 5.92564C18.015 3.89667 16.3854 2.36911 14.233 1.42307C13.7978 1.23179 13.3212 1.0471 13.1738 1.01258C12.8256 0.931184 12.837 0.875879 13.2542 0.621881C13.5063 0.468419 13.592 0.356528 13.5698 0.209842C13.5202 -0.117774 13.2023 -0.0667732 12.397 0.398098ZM8.675 0.613365C5.94843 0.987038 3.41402 2.41974 1.86549 4.46281C1.2695 5.24926 0.577531 6.6262 0.34015 7.49826C-0.286533 9.80064 -0.0476898 11.9938 1.06009 14.1093C2.21903 16.3227 4.24359 18.0288 6.60522 18.7822C7.06917 18.9302 7.44824 19.0724 7.44765 19.0983C7.44697 19.1242 7.29067 19.2401 7.10045 19.3559C6.72352 19.5854 6.6632 19.9403 6.99102 19.999C7.16135 20.0294 8.39815 19.3848 8.68318 19.1169C8.85635 18.9542 8.824 18.8719 8.25637 18.03C7.91306 17.5207 7.75178 17.3598 7.58457 17.3598C7.24282 17.3598 7.20637 17.6589 7.4956 18.0895L7.74681 18.4634L7.47601 18.404C6.95925 18.2907 5.93537 17.8841 5.35371 17.5612C3.0331 16.2726 1.50357 14.3193 0.858276 11.8202C0.603452 10.8337 0.629958 8.93966 0.913334 7.88292C1.49831 5.70131 2.94745 3.78881 4.9152 2.6015C6.35927 1.73008 7.72538 1.29066 9.32487 1.18299C10.2537 1.12036 10.4582 1.01707 10.2781 0.700992C10.1579 0.489937 9.74156 0.467229 8.675 0.613365ZM13.6407 6.25765C10.4928 10.2847 10.5516 10.2027 10.6638 10.3996C10.7589 10.5665 10.866 10.5841 11.7886 10.5841C12.3495 10.5841 12.8084 10.6133 12.8084 10.649C12.8084 10.6847 12.4736 11.5469 12.0643 12.565C11.6379 13.626 11.3465 14.4804 11.3818 14.5667C11.5131 14.8883 11.8732 14.6616 12.6171 13.7888C14.1541 11.9858 16.2357 9.45947 16.286 9.33622C16.4114 9.0293 16.129 8.9359 15.0751 8.9359C14.1476 8.9359 14.057 8.92098 14.1011 8.77567C14.1278 8.68749 14.4026 7.82349 14.7116 6.85557C15.1761 5.40034 15.2519 5.07153 15.1496 4.95561C15.0816 4.8786 14.9678 4.81552 14.897 4.81552C14.8261 4.81552 14.2608 5.46443 13.6407 6.25765ZM6.11 5.47936C5.50446 6.09247 4.14975 8.80323 3.81054 10.0805C3.35058 11.8126 3.66212 13.0358 4.74846 13.7629C6.23444 14.7575 8.22411 14.2594 8.98703 12.702C9.20482 12.2573 9.22333 12.1262 9.18046 11.3286C9.12228 10.2431 8.78102 9.22808 7.89601 7.50787C7.18493 6.12562 6.63104 5.27334 6.44385 5.27334C6.37213 5.27334 6.22187 5.36609 6.11 5.47936ZM5.97757 6.84385C4.72907 8.84818 4.04636 11.0276 4.32506 12.1192C4.65355 13.4061 6.26991 14.0604 7.47533 13.3946C8.95321 12.5783 8.91813 10.971 7.35508 7.88292C7.04919 7.27859 6.70842 6.64616 6.59782 6.47759L6.39669 6.17103L5.97757 6.84385ZM12.7745 8.41875L11.6199 9.89733L12.5462 9.92342C13.8055 9.95895 13.8079 9.96289 13.3134 11.2008C12.7545 12.5998 12.7554 12.5965 12.9859 12.3238C13.0923 12.1979 13.6483 11.5386 14.2217 10.8588L15.2641 9.62263L14.4991 9.59956C13.5006 9.56944 13.2957 9.52054 13.2957 9.31205C13.2957 9.21865 13.4517 8.65865 13.6424 8.06769C13.833 7.47665 13.9755 6.98119 13.9591 6.96663C13.9425 6.95207 13.4095 7.60557 12.7745 8.41875Z" fill="#C0C0C0"/>
</svg>
