<svg width="32" height="14" viewBox="0 0 32 14" fill="none" xmlns="http://www.w3.org/2000/svg">
<path fill-rule="evenodd" clip-rule="evenodd" d="M12.226 1.76503C10.425 2.89703 7.808 3.82403 6.41 3.82403C5.012 3.82403 2.998 4.29003 1.934 4.85903C-0.388997 6.10203 -0.732997 10.824 1.5 10.824C2.325 10.824 3 11.226 3 11.717C3 13.438 6.306 13.857 7.973 12.348C10.369 10.18 19.765 10.301 22.23 12.532C23.755 13.912 24.442 14.008 25.809 13.03C26.739 12.364 28.512 11.381 29.75 10.846C31.385 10.14 32 9.03203 32 6.79803C32 4.21003 31.427 3.48303 28.387 2.21303C22.127 -0.40297 15.945 -0.57497 12.226 1.76503ZM15.5 1.53703C11.88 2.40803 11.446 3.82403 14.8 3.82403C16.978 3.82403 18 3.34503 18 2.32403C18 1.49903 17.887 0.87603 17.75 0.94003C17.613 1.00403 16.6 1.27203 15.5 1.53703ZM19.598 1.56003C18.394 2.76303 19.051 3.82403 21 3.82403C22.1 3.82403 23 3.42203 23 2.93103C23 1.80703 20.399 0.75803 19.598 1.56003ZM25.946 3.87803C25.151 4.38203 20.225 4.80603 15 4.82203C3.573 4.85703 1 5.43003 1 7.94103C1 10.19 2.549 10.441 3.362 8.32403C4.107 6.38003 7.893 6.38003 8.638 8.32403C9.445 10.425 20.256 10.425 22 8.32403C22.685 7.49903 23.81 6.82403 24.5 6.82403C25.19 6.82403 26.315 7.49903 27 8.32403C28.919 10.636 31 10.135 31 7.35903C31 4.50103 28.109 2.51003 25.946 3.87803ZM4.336 9.39103C3.502 11.563 5.618 13.606 7.133 12.091C8.413 10.811 7.62 7.82403 6 7.82403C5.415 7.82403 4.667 8.52903 4.336 9.39103ZM22.666 9.25103C21.941 11.142 24.188 12.944 25.929 11.868C27.585 10.844 26.621 7.82403 24.638 7.82403C23.855 7.82403 22.968 8.46603 22.666 9.25103Z" fill="#C0C0C0"/>
</svg>
