<svg width="31" height="12" viewBox="0 0 31 12" fill="none" xmlns="http://www.w3.org/2000/svg">
<path fill-rule="evenodd" clip-rule="evenodd" d="M10.645 1.95189C9.074 3.02489 6.037 4.18289 3.895 4.52589C0.567 5.05789 0 5.51389 0 7.66189C0 9.38189 0.71 10.4079 2.25 10.9139C4.025 11.4979 20.753 11.7089 26.679 11.2219C28.779 11.0489 30.835 8.21089 30.311 6.20689C29.36 2.56989 26.346 0.919886 19.798 0.451886C14.696 0.0868861 12.958 0.371886 10.645 1.95189ZM12.46 2.63389C10.586 4.10289 10.631 4.15789 13.5 3.89789C15.15 3.74789 16.421 3.18589 16.325 2.64989C16.033 1.02089 14.525 1.01489 12.46 2.63389ZM18 2.12489C18 2.67489 18.702 3.12489 19.559 3.12489C20.416 3.12489 20.84 2.67489 20.5 2.12489C20.16 1.57489 19.459 1.12489 18.941 1.12489C18.423 1.12489 18 1.57489 18 2.12489ZM24.816 3.17689C24.568 3.92189 20.964 4.51389 14.962 4.79489C3.144 5.34789 1 5.78589 1 7.64389C1 9.56889 1.91 9.51589 4.182 7.46089C5.906 5.89989 6.165 5.93189 8.325 7.96089C11.505 10.9479 18.495 10.9479 21.675 7.96089C23.835 5.93189 24.094 5.89989 25.818 7.46089C28.192 9.60889 29 9.56289 29 7.27989C29 4.99389 25.39 1.45489 24.816 3.17689ZM4 9.62489C4 10.4579 4.889 11.1249 6 11.1249C7.111 11.1249 8 10.4579 8 9.62489C8 8.79189 7.111 8.12489 6 8.12489C4.889 8.12489 4 8.79189 4 9.62489ZM22 9.62489C22 10.4579 22.889 11.1249 24 11.1249C25.111 11.1249 26 10.4579 26 9.62489C26 8.79189 25.111 8.12489 24 8.12489C22.889 8.12489 22 8.79189 22 9.62489Z" fill="#C0C0C0"/>
</svg>
