<svg width="32" height="12" viewBox="0 0 32 12" fill="none" xmlns="http://www.w3.org/2000/svg">
<path fill-rule="evenodd" clip-rule="evenodd" d="M11.5551 1.65028C10.4871 2.45728 8.46209 3.12428 7.05509 3.13228C2.15609 3.15828 -0.00390625 4.23828 -0.00390625 6.66128C-0.00390625 9.40028 5.67509 12.8393 7.38109 11.1333C8.61209 9.90228 20.9511 9.80328 22.8551 11.0103C23.6801 11.5323 25.7451 11.2703 28.1051 10.3433C31.3401 9.07228 31.9961 8.34128 31.9961 6.00528C31.9961 3.48528 31.4621 3.03728 26.8141 1.65728C20.3431 -0.264722 14.0901 -0.267722 11.5551 1.65028ZM13.4961 2.11828C13.1351 2.70128 14.1521 3.11828 15.9371 3.11828C17.6191 3.11828 18.9961 2.66828 18.9961 2.11828C18.9961 1.56828 17.8981 1.11828 16.5551 1.11828C15.2121 1.11828 13.8361 1.56828 13.4961 2.11828ZM19.9961 2.11828C19.9961 2.66828 20.6981 3.11828 21.5551 3.11828C22.4121 3.11828 22.8361 2.66828 22.4961 2.11828C22.1561 1.56828 21.4551 1.11828 20.9371 1.11828C20.4191 1.11828 19.9961 1.56828 19.9961 2.11828ZM12.9961 4.13928C6.67109 4.53328 1.38409 4.91428 1.24609 4.98628C0.496094 5.38128 1.15109 8.11828 1.99609 8.11828C2.54609 8.11828 2.99609 7.71628 2.99609 7.22528C2.99609 5.22828 6.39409 5.14428 8.46609 7.09028C11.5321 9.97028 20.4601 9.98928 21.9961 7.11828C23.3501 4.58728 25.4921 4.56028 27.2371 7.05228C29.0661 9.66328 32.0631 8.09128 30.3951 5.39628C29.0901 3.28828 27.9721 3.20728 12.9961 4.13928ZM4.68409 6.76428C3.26809 8.17928 4.06909 10.1183 6.06909 10.1183C7.46709 10.1183 8.03709 9.57528 7.81909 8.45128C7.46209 6.61028 5.75509 5.69228 4.68409 6.76428ZM23.3351 7.67828C22.5841 9.63528 23.4871 10.5273 25.4531 9.77328C27.4311 9.01428 27.4341 7.50028 25.4581 6.74228C24.5731 6.40228 23.6721 6.79928 23.3351 7.67828Z" fill="#C0C0C0"/>
</svg>
