<svg width="32" height="12" viewBox="0 0 32 12" fill="none" xmlns="http://www.w3.org/2000/svg">
<path fill-rule="evenodd" clip-rule="evenodd" d="M11.5551 1.79923C10.4871 2.60623 8.16209 3.26723 6.38709 3.26723C1.66709 3.26723 -0.00390625 4.19123 -0.00390625 6.80123C-0.00390625 9.52223 4.95409 12.5422 7.14409 11.1552C8.90309 10.0392 21.0941 10.0432 22.8551 11.1592C23.6801 11.6812 25.7451 11.4192 28.1051 10.4922C31.2781 9.24623 31.9961 8.46923 31.9961 6.28423C31.9961 3.93123 31.4521 3.48023 27.5461 2.58623C24.5571 1.90223 22.7651 1.89823 22.0881 2.57523C21.4121 3.25123 20.5741 3.16223 19.5381 2.30223C18.4921 1.43323 17.9961 1.38323 17.9961 2.14523C17.9961 2.76223 16.5341 3.25323 14.7461 3.23523C11.6721 3.20523 11.6011 3.12423 13.4371 1.73523C14.5051 0.928226 14.9551 0.281225 14.4371 0.299225C13.9201 0.316225 12.6221 0.991225 11.5551 1.79923ZM2.24609 4.92923C0.762094 5.52823 0.557094 8.26723 1.99609 8.26723C2.54609 8.26723 2.99609 7.86523 2.99609 7.37423C2.99609 5.37723 6.39409 5.29323 8.46609 7.23923C11.5321 10.1192 20.4601 10.1382 21.9961 7.26723C23.3461 4.74523 25.6261 4.70123 27.1661 7.16723C28.5891 9.44523 30.9961 8.81223 30.9961 6.16023C30.9961 4.39123 30.0981 4.27223 17.2461 4.34623C9.68409 4.38923 2.93409 4.65223 2.24609 4.92923ZM4.68409 6.91323C3.26809 8.32823 4.06909 10.2672 6.06909 10.2672C7.46709 10.2672 8.03709 9.72423 7.81909 8.60023C7.46209 6.75923 5.75509 5.84123 4.68409 6.91323ZM22.9561 7.81523C22.0211 8.94123 22.1011 9.37022 23.3351 9.84422C25.0221 10.4912 26.9961 9.66723 26.9961 8.31523C26.9961 6.74023 24.1421 6.38723 22.9561 7.81523Z" fill="#C0C0C0"/>
</svg>
