<svg width="34" height="36" viewBox="0 0 34 36" fill="none" xmlns="http://www.w3.org/2000/svg">
<mask id="path-1-outside-1_507_1446" maskUnits="userSpaceOnUse" x="0" y="0" width="34" height="36" fill="black">
<rect fill="white" width="34" height="36"/>
<path fill-rule="evenodd" clip-rule="evenodd" d="M1.05364 1.02834C1.0241 1.05974 1 1.72384 1 2.50409V3.92262H4.15155H7.30304L8.95881 4.56633C9.86946 4.92038 10.6551 5.21005 10.7046 5.21005C10.8457 5.21005 13.2359 3.54147 13.1764 3.48447C13.1472 3.4565 11.8037 2.89904 10.1908 2.24574L7.25834 1.05795L4.18281 1.01453C2.49127 0.990644 1.08318 0.996867 1.05364 1.02834ZM1.64371 2.49064V3.34735L4.62983 3.36681L7.61595 3.38619L9.13405 3.98778L10.6521 4.58937L11.327 4.13083C11.6981 3.87863 11.9806 3.65062 11.9546 3.62408C11.9286 3.59754 10.8256 3.13886 9.5034 2.60487L7.09934 1.63386H4.37156H1.64371V2.49064ZM18.3633 3.66521C17.1819 3.77678 16.7091 3.84766 16.6353 3.92434C16.4141 4.15421 11.5689 9.97118 11.5404 10.0411C11.5237 10.0823 11.8921 10.903 12.3591 11.865C12.8261 12.827 13.2479 13.7348 13.2964 13.8823C13.4512 14.3527 13.5112 14.3456 17.0511 13.4372L19.2623 12.8698L20.1717 13.8142C21.144 14.8236 28.7917 22.3277 28.8793 22.3582C28.918 22.3715 31.7384 19.819 32.5244 19.0594C32.5955 18.9907 32.0234 18.4056 29.764 16.2366L26.9139 13.5005L26.867 12.2048C26.8412 11.4921 26.8201 10.597 26.8201 10.2156V9.52215L25.479 8.20125C24.7415 7.47478 23.3526 6.11833 22.3926 5.18695L20.6472 3.49348L20.3184 3.50263C20.1376 3.50764 19.2577 3.58081 18.3633 3.66521ZM12.8014 4.6817C12.0343 5.29573 11.3313 5.85784 11.2392 5.93087L11.0717 6.06354L11.2262 6.28048C11.3112 6.39985 11.4026 6.49741 11.4295 6.49734C11.4563 6.49726 12.1059 5.99481 12.873 5.38078C13.64 4.76674 14.3433 4.20442 14.4357 4.13126L14.6038 3.99815L14.4357 3.78551C14.3433 3.66857 14.2516 3.57122 14.2319 3.56908C14.2122 3.567 13.5685 4.06767 12.8014 4.6817ZM18.6037 4.23482L17.0033 4.38753L14.5902 7.2831L12.1771 10.1787L12.7961 11.4315C13.1365 12.1205 13.5041 12.8855 13.6129 13.1313C13.7606 13.465 13.8471 13.5783 13.954 13.5783C14.0328 13.5783 15.236 13.2887 16.628 12.9346C19.1656 12.2891 19.6677 12.1994 19.6677 12.3914C19.6677 12.4945 28.7888 21.5532 28.8926 21.5532C28.9242 21.5532 29.5809 20.9739 30.3518 20.2658L31.7535 18.9784L31.3074 18.5389C31.062 18.2972 29.8473 17.1263 28.6082 15.9371L26.3552 13.7748L26.3106 13.0149C26.2862 12.597 26.2601 11.7885 26.2529 11.2181C26.2456 10.6476 26.2174 10.062 26.1901 9.91653C26.1468 9.68544 25.7814 9.30293 23.2864 6.87677C21.7165 5.35038 20.3808 4.09707 20.3182 4.09177C20.2554 4.08648 19.484 4.15085 18.6037 4.23482ZM18.8801 14.2587C18.6759 14.4761 18.6051 14.3708 19.8743 15.7364C21.9577 17.9778 24.0856 20.7272 24.5267 21.7476C24.7717 22.3145 24.7713 22.3444 24.5163 22.5866C23.9647 23.1104 22.4509 23.6289 22.2175 23.3739C22.1651 23.3167 21.032 21.8858 19.6993 20.1943C18.3666 18.5028 16.8475 16.5783 16.3236 15.9178L15.3709 14.7169L15.1545 14.8709C15.0354 14.9557 14.9531 15.0642 14.9715 15.1121C14.9898 15.1599 16.5898 17.2037 18.527 19.6538L22.0491 24.1084L22.4856 24.0597C23.4199 23.9554 24.5643 23.434 25.0346 22.8983C25.2484 22.6549 25.2613 22.6104 25.2239 22.2486C25.0998 21.0461 23.2438 18.4704 19.9685 14.9552C19.5195 14.4732 19.1289 14.079 19.1005 14.079C19.0721 14.079 18.9729 14.1599 18.8801 14.2587ZM30.8247 21.5589L29.6453 22.7447L29.8224 22.8642C30.8247 23.5405 31.0012 24.311 30.4065 25.4135C29.7975 26.5427 28.8577 27.6477 25.9678 30.6325C24.9417 31.6922 24.1022 32.5782 24.1022 32.6013C24.1022 32.6716 25.7527 34.5348 25.815 34.5348C26.0459 34.5348 29.0416 31.608 30.0609 30.3864C31.3982 28.7839 32.4312 27.0145 32.7543 25.7731C33.0696 24.5615 33.0817 23.3021 32.7891 22.1143C32.6706 21.6331 32.1344 20.3731 32.0481 20.3731C32.0238 20.3731 31.4732 20.9067 30.8247 21.5589ZM31.2246 22.0124L30.5896 22.6503L30.8151 22.9349C31.5365 23.8458 31.504 24.8021 30.7081 26.079C30.0117 27.1964 29.2237 28.1047 26.5512 30.8706L24.874 32.6064L25.1243 32.909C25.2619 33.0754 25.4848 33.338 25.6196 33.4924L25.8648 33.7732L26.6106 33.0915C27.0209 32.7167 27.783 31.9683 28.3043 31.4285C31.9434 27.66 33.0001 25.0048 32.0991 21.893C32.0165 21.6077 31.9288 21.3744 31.9042 21.3744C31.8797 21.3744 31.5738 21.6615 31.2246 22.0124Z"/>
</mask>
<path fill-rule="evenodd" clip-rule="evenodd" d="M1.05364 1.02834C1.0241 1.05974 1 1.72384 1 2.50409V3.92262H4.15155H7.30304L8.95881 4.56633C9.86946 4.92038 10.6551 5.21005 10.7046 5.21005C10.8457 5.21005 13.2359 3.54147 13.1764 3.48447C13.1472 3.4565 11.8037 2.89904 10.1908 2.24574L7.25834 1.05795L4.18281 1.01453C2.49127 0.990644 1.08318 0.996867 1.05364 1.02834ZM1.64371 2.49064V3.34735L4.62983 3.36681L7.61595 3.38619L9.13405 3.98778L10.6521 4.58937L11.327 4.13083C11.6981 3.87863 11.9806 3.65062 11.9546 3.62408C11.9286 3.59754 10.8256 3.13886 9.5034 2.60487L7.09934 1.63386H4.37156H1.64371V2.49064ZM18.3633 3.66521C17.1819 3.77678 16.7091 3.84766 16.6353 3.92434C16.4141 4.15421 11.5689 9.97118 11.5404 10.0411C11.5237 10.0823 11.8921 10.903 12.3591 11.865C12.8261 12.827 13.2479 13.7348 13.2964 13.8823C13.4512 14.3527 13.5112 14.3456 17.0511 13.4372L19.2623 12.8698L20.1717 13.8142C21.144 14.8236 28.7917 22.3277 28.8793 22.3582C28.918 22.3715 31.7384 19.819 32.5244 19.0594C32.5955 18.9907 32.0234 18.4056 29.764 16.2366L26.9139 13.5005L26.867 12.2048C26.8412 11.4921 26.8201 10.597 26.8201 10.2156V9.52215L25.479 8.20125C24.7415 7.47478 23.3526 6.11833 22.3926 5.18695L20.6472 3.49348L20.3184 3.50263C20.1376 3.50764 19.2577 3.58081 18.3633 3.66521ZM12.8014 4.6817C12.0343 5.29573 11.3313 5.85784 11.2392 5.93087L11.0717 6.06354L11.2262 6.28048C11.3112 6.39985 11.4026 6.49741 11.4295 6.49734C11.4563 6.49726 12.1059 5.99481 12.873 5.38078C13.64 4.76674 14.3433 4.20442 14.4357 4.13126L14.6038 3.99815L14.4357 3.78551C14.3433 3.66857 14.2516 3.57122 14.2319 3.56908C14.2122 3.567 13.5685 4.06767 12.8014 4.6817ZM18.6037 4.23482L17.0033 4.38753L14.5902 7.2831L12.1771 10.1787L12.7961 11.4315C13.1365 12.1205 13.5041 12.8855 13.6129 13.1313C13.7606 13.465 13.8471 13.5783 13.954 13.5783C14.0328 13.5783 15.236 13.2887 16.628 12.9346C19.1656 12.2891 19.6677 12.1994 19.6677 12.3914C19.6677 12.4945 28.7888 21.5532 28.8926 21.5532C28.9242 21.5532 29.5809 20.9739 30.3518 20.2658L31.7535 18.9784L31.3074 18.5389C31.062 18.2972 29.8473 17.1263 28.6082 15.9371L26.3552 13.7748L26.3106 13.0149C26.2862 12.597 26.2601 11.7885 26.2529 11.2181C26.2456 10.6476 26.2174 10.062 26.1901 9.91653C26.1468 9.68544 25.7814 9.30293 23.2864 6.87677C21.7165 5.35038 20.3808 4.09707 20.3182 4.09177C20.2554 4.08648 19.484 4.15085 18.6037 4.23482ZM18.8801 14.2587C18.6759 14.4761 18.6051 14.3708 19.8743 15.7364C21.9577 17.9778 24.0856 20.7272 24.5267 21.7476C24.7717 22.3145 24.7713 22.3444 24.5163 22.5866C23.9647 23.1104 22.4509 23.6289 22.2175 23.3739C22.1651 23.3167 21.032 21.8858 19.6993 20.1943C18.3666 18.5028 16.8475 16.5783 16.3236 15.9178L15.3709 14.7169L15.1545 14.8709C15.0354 14.9557 14.9531 15.0642 14.9715 15.1121C14.9898 15.1599 16.5898 17.2037 18.527 19.6538L22.0491 24.1084L22.4856 24.0597C23.4199 23.9554 24.5643 23.434 25.0346 22.8983C25.2484 22.6549 25.2613 22.6104 25.2239 22.2486C25.0998 21.0461 23.2438 18.4704 19.9685 14.9552C19.5195 14.4732 19.1289 14.079 19.1005 14.079C19.0721 14.079 18.9729 14.1599 18.8801 14.2587ZM30.8247 21.5589L29.6453 22.7447L29.8224 22.8642C30.8247 23.5405 31.0012 24.311 30.4065 25.4135C29.7975 26.5427 28.8577 27.6477 25.9678 30.6325C24.9417 31.6922 24.1022 32.5782 24.1022 32.6013C24.1022 32.6716 25.7527 34.5348 25.815 34.5348C26.0459 34.5348 29.0416 31.608 30.0609 30.3864C31.3982 28.7839 32.4312 27.0145 32.7543 25.7731C33.0696 24.5615 33.0817 23.3021 32.7891 22.1143C32.6706 21.6331 32.1344 20.3731 32.0481 20.3731C32.0238 20.3731 31.4732 20.9067 30.8247 21.5589ZM31.2246 22.0124L30.5896 22.6503L30.8151 22.9349C31.5365 23.8458 31.504 24.8021 30.7081 26.079C30.0117 27.1964 29.2237 28.1047 26.5512 30.8706L24.874 32.6064L25.1243 32.909C25.2619 33.0754 25.4848 33.338 25.6196 33.4924L25.8648 33.7732L26.6106 33.0915C27.0209 32.7167 27.783 31.9683 28.3043 31.4285C31.9434 27.66 33.0001 25.0048 32.0991 21.893C32.0165 21.6077 31.9288 21.3744 31.9042 21.3744C31.8797 21.3744 31.5738 21.6615 31.2246 22.0124Z" fill="#C0C0C0"/>
<path fill-rule="evenodd" clip-rule="evenodd" d="M1.05364 1.02834C1.0241 1.05974 1 1.72384 1 2.50409V3.92262H4.15155H7.30304L8.95881 4.56633C9.86946 4.92038 10.6551 5.21005 10.7046 5.21005C10.8457 5.21005 13.2359 3.54147 13.1764 3.48447C13.1472 3.4565 11.8037 2.89904 10.1908 2.24574L7.25834 1.05795L4.18281 1.01453C2.49127 0.990644 1.08318 0.996867 1.05364 1.02834ZM1.64371 2.49064V3.34735L4.62983 3.36681L7.61595 3.38619L9.13405 3.98778L10.6521 4.58937L11.327 4.13083C11.6981 3.87863 11.9806 3.65062 11.9546 3.62408C11.9286 3.59754 10.8256 3.13886 9.5034 2.60487L7.09934 1.63386H4.37156H1.64371V2.49064ZM18.3633 3.66521C17.1819 3.77678 16.7091 3.84766 16.6353 3.92434C16.4141 4.15421 11.5689 9.97118 11.5404 10.0411C11.5237 10.0823 11.8921 10.903 12.3591 11.865C12.8261 12.827 13.2479 13.7348 13.2964 13.8823C13.4512 14.3527 13.5112 14.3456 17.0511 13.4372L19.2623 12.8698L20.1717 13.8142C21.144 14.8236 28.7917 22.3277 28.8793 22.3582C28.918 22.3715 31.7384 19.819 32.5244 19.0594C32.5955 18.9907 32.0234 18.4056 29.764 16.2366L26.9139 13.5005L26.867 12.2048C26.8412 11.4921 26.8201 10.597 26.8201 10.2156V9.52215L25.479 8.20125C24.7415 7.47478 23.3526 6.11833 22.3926 5.18695L20.6472 3.49348L20.3184 3.50263C20.1376 3.50764 19.2577 3.58081 18.3633 3.66521ZM12.8014 4.6817C12.0343 5.29573 11.3313 5.85784 11.2392 5.93087L11.0717 6.06354L11.2262 6.28048C11.3112 6.39985 11.4026 6.49741 11.4295 6.49734C11.4563 6.49726 12.1059 5.99481 12.873 5.38078C13.64 4.76674 14.3433 4.20442 14.4357 4.13126L14.6038 3.99815L14.4357 3.78551C14.3433 3.66857 14.2516 3.57122 14.2319 3.56908C14.2122 3.567 13.5685 4.06767 12.8014 4.6817ZM18.6037 4.23482L17.0033 4.38753L14.5902 7.2831L12.1771 10.1787L12.7961 11.4315C13.1365 12.1205 13.5041 12.8855 13.6129 13.1313C13.7606 13.465 13.8471 13.5783 13.954 13.5783C14.0328 13.5783 15.236 13.2887 16.628 12.9346C19.1656 12.2891 19.6677 12.1994 19.6677 12.3914C19.6677 12.4945 28.7888 21.5532 28.8926 21.5532C28.9242 21.5532 29.5809 20.9739 30.3518 20.2658L31.7535 18.9784L31.3074 18.5389C31.062 18.2972 29.8473 17.1263 28.6082 15.9371L26.3552 13.7748L26.3106 13.0149C26.2862 12.597 26.2601 11.7885 26.2529 11.2181C26.2456 10.6476 26.2174 10.062 26.1901 9.91653C26.1468 9.68544 25.7814 9.30293 23.2864 6.87677C21.7165 5.35038 20.3808 4.09707 20.3182 4.09177C20.2554 4.08648 19.484 4.15085 18.6037 4.23482ZM18.8801 14.2587C18.6759 14.4761 18.6051 14.3708 19.8743 15.7364C21.9577 17.9778 24.0856 20.7272 24.5267 21.7476C24.7717 22.3145 24.7713 22.3444 24.5163 22.5866C23.9647 23.1104 22.4509 23.6289 22.2175 23.3739C22.1651 23.3167 21.032 21.8858 19.6993 20.1943C18.3666 18.5028 16.8475 16.5783 16.3236 15.9178L15.3709 14.7169L15.1545 14.8709C15.0354 14.9557 14.9531 15.0642 14.9715 15.1121C14.9898 15.1599 16.5898 17.2037 18.527 19.6538L22.0491 24.1084L22.4856 24.0597C23.4199 23.9554 24.5643 23.434 25.0346 22.8983C25.2484 22.6549 25.2613 22.6104 25.2239 22.2486C25.0998 21.0461 23.2438 18.4704 19.9685 14.9552C19.5195 14.4732 19.1289 14.079 19.1005 14.079C19.0721 14.079 18.9729 14.1599 18.8801 14.2587ZM30.8247 21.5589L29.6453 22.7447L29.8224 22.8642C30.8247 23.5405 31.0012 24.311 30.4065 25.4135C29.7975 26.5427 28.8577 27.6477 25.9678 30.6325C24.9417 31.6922 24.1022 32.5782 24.1022 32.6013C24.1022 32.6716 25.7527 34.5348 25.815 34.5348C26.0459 34.5348 29.0416 31.608 30.0609 30.3864C31.3982 28.7839 32.4312 27.0145 32.7543 25.7731C33.0696 24.5615 33.0817 23.3021 32.7891 22.1143C32.6706 21.6331 32.1344 20.3731 32.0481 20.3731C32.0238 20.3731 31.4732 20.9067 30.8247 21.5589ZM31.2246 22.0124L30.5896 22.6503L30.8151 22.9349C31.5365 23.8458 31.504 24.8021 30.7081 26.079C30.0117 27.1964 29.2237 28.1047 26.5512 30.8706L24.874 32.6064L25.1243 32.909C25.2619 33.0754 25.4848 33.338 25.6196 33.4924L25.8648 33.7732L26.6106 33.0915C27.0209 32.7167 27.783 31.9683 28.3043 31.4285C31.9434 27.66 33.0001 25.0048 32.0991 21.893C32.0165 21.6077 31.9288 21.3744 31.9042 21.3744C31.8797 21.3744 31.5738 21.6615 31.2246 22.0124Z" stroke="#C0C0C0" stroke-width="2" mask="url(#path-1-outside-1_507_1446)"/>
</svg>
