<svg width="32" height="14" viewBox="0 0 32 14" fill="none" xmlns="http://www.w3.org/2000/svg">
<path fill-rule="evenodd" clip-rule="evenodd" d="M11.016 2.00428C9.099 3.07328 6.548 3.94728 5.347 3.94728C1.437 3.94728 0 5.05128 0 8.05428C0 9.95928 0.512 10.9473 1.5 10.9473C2.325 10.9473 3 11.3493 3 11.8403C3 13.5613 6.306 13.9803 7.973 12.4713C10.369 10.3033 19.765 10.4243 22.23 12.6553C23.755 14.0353 24.442 14.1313 25.809 13.1533C26.739 12.4873 28.513 11.5043 29.75 10.9693C32.654 9.71428 32.763 5.14328 29.961 2.13628C28.242 0.290276 26.871 -0.0437236 21.211 0.00427641C16.513 0.0452764 13.455 0.645276 11.016 2.00428ZM13.441 2.41528C11.605 3.80428 11.676 3.88528 14.75 3.91528C16.986 3.93728 18 3.47928 18 2.44728C18 0.539276 15.941 0.524277 13.441 2.41528ZM19 2.44728C19 3.28028 19.889 3.94728 21 3.94728C22.111 3.94728 23 3.28028 23 2.44728C23 1.61428 22.111 0.947276 21 0.947276C19.889 0.947276 19 1.61428 19 2.44728ZM24 1.94728C24 2.49728 24.702 2.94728 25.559 2.94728C26.416 2.94728 26.84 2.49728 26.5 1.94728C26.16 1.39728 25.459 0.947276 24.941 0.947276C24.423 0.947276 24 1.39728 24 1.94728ZM27.781 3.11028C27.454 4.09828 23.969 4.57728 14.419 4.94728C1.957 5.42928 1.489 5.52728 1.18 7.69728C0.823 10.2123 2.467 10.7783 3.362 8.44728C3.678 7.62228 4.865 6.94728 6 6.94728C7.135 6.94728 8.322 7.62228 8.638 8.44728C9.445 10.5483 20.256 10.5483 22 8.44728C22.685 7.62228 23.81 6.94728 24.5 6.94728C25.19 6.94728 26.315 7.62228 27 8.44728C27.685 9.27228 28.901 9.94728 29.702 9.94728C30.82 9.94728 30.999 9.19028 30.474 6.69728C29.672 2.89028 28.411 1.21028 27.781 3.11028ZM4.336 9.51428C3.548 11.5683 5.13 13.1033 6.904 12.0063C8.415 11.0723 7.719 7.94728 6 7.94728C5.415 7.94728 4.667 8.65228 4.336 9.51428ZM22.666 9.37428C21.941 11.2653 24.188 13.0673 25.929 11.9913C27.585 10.9673 26.621 7.94728 24.638 7.94728C23.855 7.94728 22.968 8.58928 22.666 9.37428Z" fill="#C0C0C0"/>
</svg>
