<svg width="32" height="18" viewBox="0 0 32 18" fill="none" xmlns="http://www.w3.org/2000/svg">
<path fill-rule="evenodd" clip-rule="evenodd" d="M10.7638 0.603288C9.33169 1.32675 8.73039 2.25456 0.902264 15.8196C0.308361 16.8482 -0.0898932 17.7778 0.0174963 17.8847C0.124451 17.9921 4.96654 17.95 10.7777 17.7913C20.6563 17.5213 21.4089 17.4434 22.3532 16.5952C23.2554 15.7852 32.2765 0.690243 31.9935 0.464595C31.93 0.414161 27.4562 0.258946 22.051 0.119383C13.3503 -0.104961 12.0569 -0.0497441 10.7638 0.603288ZM23.3754 3.62324C23.0454 4.28062 22.7045 4.96539 22.6171 5.14495C22.5297 5.32451 23.531 5.47103 24.8427 5.47103C27.107 5.47103 27.2727 5.39451 28.1248 3.94932L29.0231 2.42761H26.4988C24.1801 2.42761 23.9258 2.52499 23.3754 3.62324ZM21.5706 7.10144C20.658 8.15403 16.4437 15.4017 16.4437 15.9191C16.4437 16.5348 20.0719 16.4348 20.875 15.7969C21.5224 15.283 26.4436 7.15622 26.4436 6.60101C26.4436 6.45797 25.4958 6.34058 24.3371 6.34058C22.8723 6.34058 22.0297 6.57232 21.5706 7.10144Z" fill="#C0C0C0"/>
</svg>
