<svg width="32" height="12" viewBox="0 0 32 12" fill="none" xmlns="http://www.w3.org/2000/svg">
<path fill-rule="evenodd" clip-rule="evenodd" d="M11.9961 1.73444C10.6211 2.52044 8.07009 3.17944 6.32809 3.19944C1.64009 3.25144 -0.00390625 4.17844 -0.00390625 6.76844C-0.00390625 9.48944 4.95409 12.5094 7.14409 11.1224C8.90309 10.0064 21.0941 10.0104 22.8551 11.1264C23.6801 11.6484 25.7451 11.3864 28.1051 10.4594C31.2381 9.22844 31.9951 8.42444 31.9921 6.33244C31.9891 4.21744 31.1971 3.40944 27.7321 1.98444C22.6221 -0.116562 15.4331 -0.230561 11.9961 1.73444ZM12.9961 2.23444C11.8231 2.99244 12.0821 3.20744 14.1871 3.21944C15.6671 3.22744 17.1561 2.78444 17.4961 2.23444C18.2851 0.957439 14.9721 0.957439 12.9961 2.23444ZM18.9961 2.23444C18.9961 2.78444 19.4191 3.23444 19.9371 3.23444C20.4551 3.23444 21.1561 2.78444 21.4961 2.23444C21.8361 1.68444 21.4121 1.23444 20.5551 1.23444C19.6981 1.23444 18.9961 1.68444 18.9961 2.23444ZM25.4981 3.23144C25.1481 3.79744 20.3651 4.23444 14.5191 4.23444C8.82109 4.23444 3.44809 4.50744 2.57809 4.84144C0.850093 5.50444 0.382094 8.23444 1.99609 8.23444C2.54609 8.23444 2.99609 7.83244 2.99609 7.34144C2.99609 5.34444 6.39409 5.26044 8.46609 7.20644C11.5321 10.0864 20.4601 10.1054 21.9961 7.23444C23.3501 4.70344 25.4921 4.67644 27.2371 7.16844C28.8041 9.40444 31.6441 8.36444 30.6981 5.90044C29.8851 3.78244 26.2961 1.94044 25.4981 3.23144ZM4.59409 6.97044C3.27709 8.28644 4.11309 10.2344 5.99609 10.2344C7.09609 10.2344 7.99609 9.60744 7.99609 8.84144C7.99609 7.33344 5.56709 5.99644 4.59409 6.97044ZM22.9561 7.78244C22.0211 8.90844 22.1011 9.33744 23.3351 9.81144C25.0221 10.4584 26.9961 9.63444 26.9961 8.28244C26.9961 6.70744 24.1421 6.35444 22.9561 7.78244Z" fill="#C0C0C0"/>
</svg>
