<svg width="32" height="32" viewBox="0 0 32 32" fill="none" xmlns="http://www.w3.org/2000/svg">
<path fill-rule="evenodd" clip-rule="evenodd" d="M8.10258 2.45467C-2.9288 7.89358 -2.62982 24.6596 8.59436 29.9858C18.1798 34.5343 29.2766 29.891 24.0043 23.5372C22.9276 22.2399 22.5404 20.379 23.1449 19.402C24.3654 17.4268 19.3513 8.76276 17.8547 10.261C17.3352 10.7805 15.8174 10.2985 14.4826 9.18918C12.4142 7.47206 12.2345 7.74 13.267 10.9994C14.3617 14.4451 14.1035 14.7032 10.6578 13.6086C7.39842 12.576 7.13048 12.7558 8.84759 14.8241C9.95694 16.159 10.4847 17.631 10.0207 18.095C8.59109 19.5246 13.6902 22.8395 17.7044 23.0911C21.7186 23.3428 24.2951 25.7101 22.9407 27.901C22.498 28.6183 19.2663 29.2048 15.7602 29.2048C7.55036 29.2048 2.7225 24.3655 2.7225 16.1344C2.7225 7.89031 7.54873 3.06408 15.7929 3.06408C22.7561 3.06408 28.8632 7.78902 28.8632 13.1756C28.8632 14.8029 29.5984 16.1344 30.497 16.1344C32.5197 16.1344 32.5197 16.1018 30.3827 9.97504C29.2896 6.83651 26.6004 3.99698 23.1923 2.37952C16.4725 -0.809649 14.7048 -0.80148 8.10258 2.45467ZM15.19 15.8975C12.2296 19.1684 13.1412 21.0358 17.6995 21.0358C19.5751 21.0358 20.6942 19.8513 20.6942 17.8646C20.6942 13.326 18.2942 12.4682 15.19 15.8975Z" fill="#C0C0C0"/>
</svg>
