<svg width="45" height="45" viewBox="0 0 45 45" fill="none" xmlns="http://www.w3.org/2000/svg">
<path d="M22.5 45C28.5099 45 34.16 42.6595 38.4098 38.4098C42.6595 34.1601 45 28.5099 45 22.5C45 16.4901 42.6595 10.8399 38.4098 6.59018C34.1601 2.34044 28.5099 0 22.5 0C10.0934 0 0 10.0934 0 22.5C0 28.5099 2.34044 34.1601 6.59018 38.4098C10.8399 42.6595 16.4901 45 22.5 45Z" fill="black"/>
<path d="M0.77832 22.4999C0.77832 16.6981 3.03778 11.2433 7.14048 7.1406C11.2432 3.03782 16.6978 0.778442 22.4998 0.778442C28.3017 0.778442 33.7565 3.03782 37.8591 7.1406C41.9618 11.2433 44.2213 16.698 44.2213 22.4999C44.2213 34.4772 34.477 44.2215 22.4998 44.2215C16.6978 44.2215 11.2432 41.962 7.14048 37.8593C3.03778 33.7565 0.77832 28.3018 0.77832 22.4999Z" fill="white"/>
<path d="M22.5001 1.67371C10.9982 1.67371 1.67383 10.9981 1.67383 22.5C1.67383 34.0018 10.9982 43.3263 22.5001 43.3263C34.002 43.3263 43.3263 34.0018 43.3263 22.5C43.3263 10.9981 34.002 1.67371 22.5001 1.67371Z" fill="black"/>
<path d="M22.4999 35.803C15.1529 35.803 9.19678 29.847 9.19678 22.4999C9.19678 15.1529 15.1529 9.19678 22.4999 9.19678C29.8469 9.19678 35.803 15.1529 35.803 22.4999C35.803 29.847 29.847 35.803 22.4999 35.803Z" fill="white"/>
<path d="M10.0527 22.5H22.5V10.0527C15.6257 10.0527 10.0527 15.6258 10.0527 22.5ZM22.5 22.5V34.9474C29.3744 34.9474 34.9473 29.3745 34.9473 22.5H22.5Z" fill="black"/>
<path d="M12.7237 9.80728C12.2827 9.37867 11.6011 9.2495 10.9612 9.64624C11.0834 9.32948 11.0335 9.00622 10.9686 8.82785C10.6929 8.32513 10.5967 8.26221 10.3695 8.07156C9.63393 7.45438 8.85986 7.98129 8.30624 8.64108L5.63135 11.8288L9.83623 15.3572L12.6571 11.9955C13.3016 11.2274 13.4013 10.4659 12.7237 9.80728ZM23.1967 8.29254L24.6407 4.46499V8.29254H25.7382V2.81079H24.0893L22.5894 6.73565H22.605L21.1051 2.81079H19.4562V8.29254H20.5537V4.46499L21.9978 8.29254H23.1967ZM37.9523 10.5731L35.886 13.4985L39.0893 11.9777L39.9375 13.0251L34.8955 15.4692L33.9001 14.2301L35.8833 11.3303L35.8715 11.3158L32.6228 12.6527L31.6176 11.4214L35.0567 6.9978L35.9048 8.0452L33.7513 10.8624L37.0423 9.44945L37.9523 10.5731Z" fill="white"/>
<path d="M8.89081 9.43001C9.07695 9.20813 9.49761 9.21725 9.76815 9.44419C10.0656 9.69378 10.0663 10.0476 9.86654 10.2856L8.27806 12.1787L7.28418 11.3446L8.89081 9.43001ZM11.7171 11.6632L10.0423 13.6591L8.99209 12.7779L10.6804 10.7657C10.8711 10.5385 11.2962 10.4724 11.5829 10.713C11.9074 10.9852 11.9395 11.3982 11.7171 11.6632Z" fill="black"/>
</svg>
