<svg width="32" height="33" viewBox="0 0 32 33" fill="none" xmlns="http://www.w3.org/2000/svg">
<path fill-rule="evenodd" clip-rule="evenodd" d="M8.18564 2.15314C-2.9038 6.9789 -2.66824 25.5262 8.54225 30.2113C16.8949 33.7005 17.5018 33.2818 17.1812 24.2519C16.9276 17.095 16.2324 15.5295 11.9448 12.4754C7.9877 9.65843 7.20576 9.49321 8.0335 11.6509C8.81381 13.6859 8.38849 14.0899 6.28805 13.3047C3.96678 12.4345 3.84245 12.6749 5.53883 14.7656C6.65612 16.1413 7.07326 17.7641 6.46472 18.371C5.85782 18.9795 7.7047 20.3618 10.5691 21.4431C16.288 23.6008 17.8944 29.2347 12.7906 29.2347C7.92227 29.2347 2.69081 22.3379 2.69081 15.9188C2.69081 8.36774 8.18727 3.06104 16.0066 3.06104C22.2131 3.06104 28.8644 8.40373 28.8644 13.3898C28.8644 14.9079 29.6006 16.1478 30.5003 16.1478C32.5353 16.1478 32.5353 16.1446 30.2794 9.67315C29.0198 6.06119 26.6659 3.61068 22.9705 2.06644C16.3289 -0.707963 14.7389 -0.698149 8.18564 2.15314ZM17.2008 9.08752C18.2183 11.0538 19.0493 14.3075 19.0493 16.3213C19.0493 18.3333 20.255 21.3122 21.7289 22.9415C24.0321 25.4869 24.0894 26.2869 22.1378 28.6523C20.1813 31.0226 20.2075 31.2909 22.321 30.599C23.9045 30.082 24.9466 27.2193 25.2574 22.5309C25.6811 16.1757 25.0922 14.656 20.5478 10.3913C16.3796 6.47833 15.7187 6.2215 17.2008 9.08752ZM20.6852 16.8693C20.6852 18.2712 21.4213 19.4196 22.321 19.4196C23.2208 19.4196 23.9569 18.7276 23.9569 17.8802C23.9569 17.0328 23.2208 15.8861 22.321 15.3299C21.4213 14.7737 20.6852 15.4673 20.6852 16.8693ZM10.8701 17.7837C10.8701 18.6834 11.6062 19.4196 12.5059 19.4196C13.4056 19.4196 14.1418 18.6834 14.1418 17.7837C14.1418 16.884 13.4056 16.1478 12.5059 16.1478C11.6062 16.1478 10.8701 16.884 10.8701 17.7837Z" fill="#C0C0C0"/>
</svg>
