<svg width="20" height="20" viewBox="0 0 20 20" fill="none" xmlns="http://www.w3.org/2000/svg">
<path fill-rule="evenodd" clip-rule="evenodd" d="M9.16483 0.0288291C4.80962 0.386686 1.14711 3.59119 0.224319 7.8514C-0.154968 9.60232 -0.0491502 11.5945 0.510487 13.2402C0.796391 14.0809 0.969467 14.2798 1.27376 14.1169C1.46046 14.017 1.44591 13.8876 1.14869 13.0033C0.798573 11.962 0.667757 11.1275 0.669741 9.94827C0.676553 5.97811 3.18454 2.48335 6.97714 1.15915C8.81008 0.519245 11.0659 0.504891 12.908 1.12138C16.2461 2.23861 18.6594 5.0455 19.2328 8.47755C19.389 9.41261 19.3453 11.1772 19.1446 12.0392C18.3133 15.6108 15.6032 18.323 12.036 19.1533C11.1685 19.3553 9.40735 19.3994 8.46955 19.2427C7.12098 19.0173 5.71528 18.4376 4.61928 17.6548C3.3881 16.7756 2.94949 16.2081 3.01047 15.5735C3.04704 15.1926 3.27858 14.7177 3.6129 14.3379C3.85198 14.0662 3.87473 14.0553 4.00806 14.1487C4.08583 14.2033 4.18219 14.2478 4.22214 14.2478C4.26208 14.2478 4.73561 13.9961 5.27448 13.6884L6.25415 13.129L6.48483 13.2254C6.84163 13.3745 6.93858 13.3476 7.41383 12.9683C7.97003 12.5243 7.98451 12.5055 8.10852 12.065C8.46472 10.7991 8.33708 11.006 9.46833 9.86056C10.0369 9.28475 10.5543 8.78513 10.6179 8.75021C10.6986 8.70602 10.8937 8.73063 11.2621 8.83164C11.7572 8.9673 11.8164 9.00368 12.2044 9.41042L12.6185 9.84442L13.6234 9.90633C14.7464 9.97559 14.9148 9.93424 14.9858 9.57196C15.0058 9.46969 15.0255 8.63399 15.0294 7.7148L15.0365 6.04366L14.8639 5.87095L14.6912 5.69831L12.3653 5.74686C11.0859 5.77358 9.98703 5.82306 9.92321 5.8568C9.78465 5.93015 3.86501 10.8561 3.50834 11.1948C3.37197 11.3243 3.26139 11.4913 3.26271 11.5658C3.26608 11.7576 3.5176 12.0273 3.78941 12.1305C3.91672 12.1789 4.04318 12.2375 4.07036 12.2607C4.0976 12.2839 3.95574 12.4949 3.75509 12.7296C3.48989 13.04 3.39465 13.2028 3.40609 13.3267C3.41707 13.4453 3.32666 13.6157 3.10789 13.8889C2.93521 14.1045 2.69798 14.4738 2.58072 14.7095C2.39296 15.0868 2.36777 15.2014 2.36949 15.6686C2.372 16.3491 2.53661 16.7025 3.12627 17.2929C4.28272 18.4508 6.04007 19.3795 7.89047 19.8108C8.76987 20.0157 10.6506 20.0643 11.5946 19.9065C15.7335 19.2142 18.9787 16.0982 19.8297 11.9988C20.0565 10.9062 20.0568 9.11792 19.8303 8.03C18.98 3.9456 15.7131 0.790184 11.6595 0.138038C10.8418 0.00653751 9.92526 -0.0336139 9.16483 0.0288291ZM15.276 6.28708C15.2511 6.31189 15.2308 7.01186 15.2308 7.8426V9.35294H15.912C16.3537 9.35294 16.6211 9.32503 16.6726 9.27356C16.7995 9.14663 16.7834 6.48334 16.6549 6.35482C16.5848 6.28464 16.3864 6.25553 15.9395 6.24984C15.5994 6.24548 15.3008 6.26221 15.276 6.28708ZM13.354 7.09587C13.0966 7.35523 12.9196 7.58529 12.9453 7.62683C12.9702 7.66718 13.0798 7.74636 13.189 7.80278L13.3873 7.90538L13.1811 8.27084C13.0677 8.47186 12.9856 8.66852 12.9987 8.70787C13.0118 8.74717 13.2635 8.55865 13.558 8.2889C14.1242 7.77044 14.1399 7.71778 13.7737 7.56604C13.5414 7.46986 13.532 7.38619 13.7136 7.03018C13.7885 6.8834 13.8403 6.73517 13.8289 6.70077C13.8174 6.66637 13.6037 6.84418 13.354 7.09587Z" fill="#C0C0C0"/>
</svg>
